<svg width="37" height="25" viewBox="0 0 37 25" fill="none" xmlns="http://www.w3.org/2000/svg">
<g clip-path="url(#clip0_1_180)">
<path d="M35.552 4.27716V20.7187C34.6599 20.3338 33.7682 19.9479 32.8768 19.561C31.6044 19.0109 30.2953 18.4431 28.9949 17.8878C29.0017 14.0279 29.0017 10.4911 28.9949 7.1227C30.5396 6.45864 32.0842 5.78412 33.5951 5.13052L35.5529 4.28135M35.9806 2.53807C35.7239 2.55105 35.4718 2.61596 35.2372 2.72945C32.7825 3.78707 30.3272 4.84851 27.8712 5.9138C27.6627 6.00373 27.542 6.09157 27.543 6.37706C27.5526 10.4583 27.5526 14.5399 27.543 18.6219C27.543 18.875 27.6289 18.9837 27.8326 19.0726C30.3117 20.1393 32.7896 21.2105 35.2662 22.2863C35.4907 22.3935 35.7316 22.4545 35.9767 22.4661C36.4092 22.4661 36.7075 22.1869 36.9962 21.5804V3.41964C36.7066 2.81205 36.4102 2.53284 35.9758 2.53284L35.9806 2.53807Z" fill="white"/>
<path d="M18.1003 1.5688C19.5388 1.5688 20.7175 1.5688 21.8104 1.5688C22.9293 1.5688 23.7132 2.23078 23.9053 3.33092C23.929 3.51834 23.9384 3.70757 23.9333 3.89667C23.9333 8.6026 23.9333 14.804 23.9333 21.111C23.9333 22.3105 23.3675 23.1335 22.3828 23.3677C22.178 23.4103 21.9696 23.4288 21.7611 23.4231C18.1264 23.4231 14.4347 23.4231 10.7884 23.4231H3.6299C2.94543 23.4231 2.38839 23.2088 2.01768 22.8041C1.64696 22.3994 1.44809 21.7855 1.44809 21.0357V17.4215C1.44809 12.9509 1.44809 8.32337 1.44809 3.78162C1.44809 2.68253 2.03988 1.85744 2.99273 1.62737C3.22042 1.58266 3.45165 1.56268 3.683 1.56775C5.46416 1.56775 7.23471 1.56775 8.57758 1.56775H18.1003M18.1003 -0.000892121H8.57758C6.94541 -0.000892121 5.31292 -0.000892121 3.6801 -0.000892121C3.34316 -0.00793576 3.00652 0.0246669 2.67608 0.0963567C1.06483 0.487472 0.00385045 1.95052 0.00191964 3.77956C-0.00194196 9.53264 -0.00194196 15.2843 0.00191964 21.0346C0.00191964 23.4242 1.43264 24.9886 3.63087 24.9907H10.7903C14.4485 24.9907 18.1064 24.9907 21.764 24.9907C22.077 24.9964 22.3897 24.9655 22.6966 24.8987C24.3484 24.5045 25.3823 23.0456 25.3833 21.111C25.3833 15.3732 25.3833 9.63442 25.3833 3.89457C25.3903 3.60791 25.3726 3.32117 25.3302 3.0381C25.0078 1.19547 23.6321 0.00538245 21.8152 -0.000892121C20.5775 -0.000892121 19.3399 -0.000892121 18.1022 -0.000892121H18.1003Z" fill="white"/>
</g>
<defs>
<clipPath id="clip0_1_180">
<rect width="37" height="25" fill="white"/>
</clipPath>
</defs>
</svg>
