<svg width="17" height="17" viewBox="0 0 17 17" fill="none" xmlns="http://www.w3.org/2000/svg">
<g clip-path="url(#clip0_1_157)">
<path d="M5.6321e-05 8.00048C0.0416445 7.67855 0.0736646 7.35412 0.132304 7.0351C0.571475 4.65097 1.80623 2.78136 3.80496 1.42001C4.96028 0.633481 6.24701 0.189679 7.6344 0.040775C7.92059 0.0121372 8.20807 -0.00174558 8.49569 -0.000818235C8.65811 -0.00409529 8.81548 0.0557551 8.93469 0.166139C9.05391 0.276522 9.12567 0.428841 9.1349 0.591058C9.15486 0.945849 8.92696 1.2266 8.56971 1.2657C8.21247 1.3048 7.85149 1.30729 7.49591 1.35429C6.17677 1.52577 4.93456 2.07232 3.91683 2.92901C2.72657 3.91893 1.89356 5.15592 1.52509 6.66534C0.91832 9.14929 1.44192 11.3808 3.1383 13.3086C4.26118 14.5851 5.6785 15.3666 7.35575 15.6208C9.55993 15.9535 11.535 15.3978 13.2322 13.935C14.3521 12.9696 15.1144 11.7668 15.4734 10.331C15.6023 9.81436 15.636 9.27407 15.7096 8.74417C15.7229 8.65142 15.7141 8.55617 15.725 8.463C15.7699 8.07785 16.0377 7.84367 16.4049 7.86322C16.7493 7.88194 17.0013 8.16186 17.0001 8.53412C16.998 9.28488 16.914 10.0277 16.6952 10.7452C15.7445 13.8647 13.6946 15.8741 10.5481 16.7405C10.0931 16.8653 9.61233 16.8956 9.14363 16.9705C9.09497 16.978 9.04715 16.9896 8.9989 16.9992H8.00079C7.95879 16.9871 7.91598 16.9781 7.87269 16.9721C6.54187 16.8781 5.29922 16.4976 4.16386 15.8021C1.96177 14.4524 0.606412 12.5063 0.129811 9.96036C0.0703401 9.64175 0.0408103 9.31733 -0.00244141 8.99581L5.6321e-05 8.00048Z" fill="#1F524D"/>
<path d="M7.93404 10.0306C7.97584 9.96322 8.0224 9.89887 8.07336 9.83807C10.5567 7.35856 13.0402 4.87987 15.5239 2.40202C15.7056 2.22067 15.9019 2.09673 16.171 2.14581C16.2806 2.16412 16.3835 2.21095 16.4693 2.28159C16.5552 2.35224 16.6209 2.44421 16.66 2.5483C16.699 2.65238 16.71 2.7649 16.6919 2.87458C16.6737 2.98425 16.627 3.08722 16.5565 3.17316C16.5139 3.22412 16.4683 3.27259 16.4201 3.31832C13.7637 5.96864 11.1074 8.61883 8.45098 11.2689C8.06379 11.6549 7.71154 11.649 7.34349 11.2493C6.3121 10.1302 5.28127 9.01036 4.25099 7.88984C3.95488 7.56749 3.97484 7.14116 4.29258 6.90075C4.40718 6.81177 4.54905 6.76522 4.69408 6.76901C4.83912 6.7728 4.97836 6.8267 5.08816 6.92154C5.1422 6.96901 5.19318 7.01985 5.24079 7.07377C6.10028 8.00574 6.95866 8.93812 7.81593 9.87092C7.84837 9.90794 7.87415 9.95037 7.93404 10.0306Z" fill="#1F524D"/>
</g>
<defs>
<clipPath id="clip0_1_157">
<rect width="17" height="17" fill="white"/>
</clipPath>
</defs>
</svg>
