<svg width="25" height="22" viewBox="0 0 25 22" fill="none" xmlns="http://www.w3.org/2000/svg">
<g clip-path="url(#clip0_1_153)">
<path d="M0 7.63766C0.135015 7.12582 0.391349 6.68103 0.923583 6.46879C1.20738 6.35909 1.51049 6.30066 1.81716 6.29653C2.97164 6.27746 4.12742 6.29653 5.28255 6.28238C5.43993 6.27958 5.59247 6.23055 5.71891 6.14212C8.31485 4.19318 10.9067 2.23913 13.4944 0.279933C13.7552 0.0812252 14.0292 -0.0688825 14.386 0.0338551C14.552 0.0759639 14.6997 0.166425 14.8081 0.292354C14.9164 0.418284 14.9798 0.57325 14.9893 0.735172C14.9952 0.811456 14.9945 0.888354 14.9945 0.964638C14.9945 7.6555 14.9945 14.346 14.9945 21.036C14.9945 21.3313 14.9554 21.6032 14.7049 21.8087C14.3697 22.0837 13.949 22.064 13.5309 21.7472C12.5329 20.9958 11.5359 20.2434 10.5397 19.49C8.92644 18.2732 7.31235 17.0575 5.69738 15.8431C5.58321 15.7656 5.4467 15.7227 5.30603 15.7201C4.13199 15.7109 2.96381 15.7201 1.79238 15.7133C0.866185 15.7103 0.3046 15.3067 0.0417439 14.4688C0.0306556 14.4331 0.0150017 14.3987 0.00130449 14.3636L0 7.63766ZM13.315 19.5657V2.44419C13.253 2.4854 13.2139 2.5094 13.1774 2.53647C11.0493 4.14213 8.92275 5.74942 6.79772 7.35836C6.71709 7.43678 6.67235 7.54195 6.67315 7.65119C6.66597 9.88435 6.66923 12.1175 6.66467 14.3513C6.66057 14.4149 6.67375 14.4785 6.70297 14.536C6.73219 14.5935 6.77648 14.643 6.83164 14.6798C8.51792 15.9459 10.2018 17.2152 11.8833 18.4879L13.315 19.5657ZM4.98382 7.88004H1.67954V14.1243H4.98382V7.88004Z" fill="#1F524D"/>
<path d="M25 11.2729C24.957 13.9766 23.858 16.5555 21.641 18.7007C21.2568 19.0698 20.763 19.1006 20.4069 18.7776C20.0508 18.4546 20.0664 17.9779 20.4434 17.6118C21.517 16.566 22.3252 15.367 22.8098 13.9822C23.3068 12.5965 23.4492 11.1196 23.2253 9.67211C22.9083 7.63274 21.9756 5.88373 20.4571 4.40788C20.1962 4.15627 20.0788 3.87328 20.2021 3.53061C20.3117 3.22301 20.5498 3.05384 20.8837 3.01139C21.2013 2.97079 21.444 3.10798 21.6605 3.31899C23.0692 4.66118 24.0826 6.3265 24.6009 8.15073C24.8676 9.07722 24.9929 10.0252 25 11.2729Z" fill="#1F524D"/>
<path d="M21.6593 11.1609C21.6312 13.1381 20.8446 14.9751 19.2695 16.5038C18.9172 16.8459 18.417 16.8729 18.07 16.5721C17.723 16.2713 17.7021 15.7945 18.0511 15.4426C18.6132 14.8874 19.0774 14.2508 19.426 13.557C20.4905 11.4039 20.0274 8.57397 18.3113 6.83174C18.2063 6.72469 18.0993 6.61888 18.0028 6.50568C17.8639 6.35252 17.7932 6.15467 17.8054 5.95348C17.8175 5.75228 17.9116 5.5633 18.068 5.42601C18.1461 5.35511 18.2386 5.29973 18.3398 5.26317C18.441 5.22661 18.549 5.20961 18.6574 5.21317C18.7657 5.21673 18.8722 5.24077 18.9705 5.28388C19.0688 5.327 19.157 5.38831 19.2297 5.46416C19.5904 5.83758 19.9524 6.21716 20.2524 6.63303C21.2021 7.95139 21.6541 9.42047 21.6593 11.1609Z" fill="#1F524D"/>
</g>
<defs>
<clipPath id="clip0_1_153">
<rect width="25" height="22" fill="white"/>
</clipPath>
</defs>
</svg>
