<svg width="27" height="17" viewBox="0 0 27 17" fill="none" xmlns="http://www.w3.org/2000/svg">
<g clip-path="url(#clip0_1_175)">
<path d="M25.9435 2.90846V14.0887C25.2926 13.827 24.6419 13.5646 23.9914 13.3015C23.0629 12.9274 22.1076 12.5413 21.1587 12.1637C21.1636 9.53894 21.1636 7.13394 21.1587 4.84343C22.2858 4.39187 23.413 3.93319 24.5155 3.48875L25.9442 2.91131M26.2563 1.72588C26.069 1.7347 25.885 1.77885 25.7139 1.85602C23.9226 2.5752 22.1309 3.29698 20.3386 4.02137C20.1865 4.08253 20.0984 4.14226 20.0991 4.33639C20.1062 7.11165 20.1062 9.88715 20.0991 12.6629C20.0991 12.835 20.1618 12.9089 20.3105 12.9694C22.1196 13.6947 23.9278 14.4231 25.735 15.1546C25.8988 15.2276 26.0746 15.269 26.2535 15.277C26.5691 15.277 26.7868 15.0871 26.9974 14.6746V2.32535C26.7861 1.91219 26.5698 1.72232 26.2528 1.72232L26.2563 1.72588Z" fill="#1F524D"/>
<path d="M13.2086 1.06669C14.2582 1.06669 15.1184 1.06669 15.9159 1.06669C16.7324 1.06669 17.3044 1.51683 17.4446 2.26493C17.462 2.39237 17.4688 2.52105 17.465 2.64964C17.465 5.84967 17.465 10.0666 17.465 14.3554C17.465 15.171 17.0522 15.7307 16.3336 15.8899C16.1842 15.9189 16.0321 15.9315 15.88 15.9276C13.2276 15.9276 10.5336 15.9276 7.87281 15.9276H2.64907C2.14959 15.9276 1.74311 15.7819 1.47258 15.5067C1.20206 15.2315 1.05694 14.814 1.05694 14.3042V11.8465C1.05694 8.80651 1.05694 5.65979 1.05694 2.57141C1.05694 1.82402 1.48879 1.26296 2.18411 1.10651C2.35026 1.07611 2.519 1.06253 2.68782 1.06597C3.98759 1.06597 5.27961 1.06597 6.25954 1.06597H13.2086M13.2086 -0.000704298H6.25954C5.0685 -0.000704298 3.87722 -0.000704298 2.6857 -0.000704298C2.43983 -0.00549398 2.19417 0.0166758 1.95304 0.0654249C0.77726 0.331383 0.00303413 1.32625 0.00162517 2.57C-0.00119276 6.4821 -0.00119276 10.3933 0.00162517 14.3035C0.00162517 15.9284 1.04567 16.9922 2.64977 16.9936H7.87422C10.5437 16.9936 13.213 16.9936 15.8821 16.9936C16.1105 16.9974 16.3386 16.9765 16.5626 16.931C17.768 16.6629 18.5225 15.6709 18.5232 14.3554C18.5232 10.4537 18.5232 6.55131 18.5232 2.64821C18.5283 2.45328 18.5153 2.2583 18.4844 2.06581C18.2491 0.812819 17.2452 0.00356241 15.9194 -0.000704298C15.0163 -0.000704298 14.1131 -0.000704298 13.21 -0.000704298H13.2086Z" fill="#1F524D"/>
</g>
<defs>
<clipPath id="clip0_1_175">
<rect width="27" height="17" fill="white"/>
</clipPath>
</defs>
</svg>
