<svg width="21" height="18" viewBox="0 0 21 18" fill="none" xmlns="http://www.w3.org/2000/svg">
<g clip-path="url(#clip0_1_169)">
<path d="M0 5.06274C0.15 4.66349 0.462327 4.40143 0.745888 4.119C2.69178 2.16295 4.97466 0.834443 7.63253 0.307112C12.3021 -0.620005 16.443 0.548806 19.9998 3.87089C20.2536 4.10829 20.492 4.36553 20.7293 4.62115C21.0827 5.00272 21.0889 5.51397 20.7529 5.86123C20.417 6.2085 19.9135 6.19457 19.5647 5.81569C18.5969 4.76317 17.513 3.87249 16.2771 3.18975C14.9531 2.45589 13.5096 1.98573 12.0205 1.80336C9.58459 1.50379 7.25651 1.89339 5.04914 3.01505C3.84417 3.63117 2.74456 4.44989 1.79435 5.43841C1.66798 5.56863 1.54726 5.70636 1.41935 5.83336C0.957018 6.29692 0.289211 6.15062 0.0472594 5.5354C0.0333412 5.50455 0.0175567 5.47466 0 5.44591V5.06274Z" fill="#1F524D"/>
<path d="M10.5061 4.95979C13.3453 5.00106 15.7458 6.12164 17.7492 8.19453C18.0883 8.54447 18.0883 9.06216 17.7703 9.40353C17.6956 9.48507 17.6059 9.55012 17.5066 9.59483C17.4073 9.63953 17.3004 9.66298 17.1923 9.66378C17.0842 9.66458 16.977 9.64272 16.8771 9.59948C16.7772 9.55625 16.6867 9.49253 16.6109 9.4121C15.922 8.72132 15.1838 8.09967 14.3234 7.66023C11.3157 6.12272 8.41943 6.36494 5.65624 8.31296C5.18929 8.642 4.78295 9.06751 4.35145 9.44854C4.24446 9.54637 4.1148 9.61331 3.97536 9.64271C3.83591 9.67212 3.69151 9.66296 3.5565 9.61615C3.42149 9.56935 3.30056 9.48652 3.20572 9.3759C3.11088 9.26527 3.04541 9.1307 3.01583 8.98552C2.94905 8.67577 3.04306 8.40836 3.25521 8.18596C4.23167 7.1533 5.39396 6.33194 6.67542 5.76902C7.88698 5.23271 9.18996 4.95745 10.5061 4.95979Z" fill="#1F524D"/>
<path d="M10.4537 9.95926C12.0267 10.0086 13.3541 10.6313 14.4755 11.7476C14.6304 11.8985 14.7217 12.1073 14.7294 12.3282C14.7371 12.5492 14.6606 12.7643 14.5166 12.9266C14.2161 13.2738 13.7178 13.3226 13.3762 13.0016C12.8465 12.5032 12.2671 12.1007 11.5859 11.8703C10.4964 11.5011 9.46384 11.6752 8.49501 12.2706C8.15699 12.4786 7.85648 12.7529 7.54621 13.0112C7.04227 13.4266 6.32771 13.1591 6.21059 12.5021C6.18354 12.3683 6.19034 12.2295 6.23034 12.0992C6.27033 11.969 6.34213 11.8519 6.43867 11.7594C7.56521 10.6334 8.89723 10.0075 10.4537 9.95926Z" fill="#1F524D"/>
<path d="M10.4887 18C10.1328 18.0078 9.78821 17.869 9.52973 17.6136C9.27126 17.3582 9.11968 17.0068 9.10787 16.6356C9.08013 15.8644 9.67294 15.2138 10.4296 15.1887C10.7855 15.181 11.1299 15.3199 11.3882 15.5753C11.6466 15.8307 11.7981 16.182 11.8099 16.5531C11.8382 17.3242 11.2443 17.9748 10.4887 18Z" fill="#1F524D"/>
</g>
<defs>
<clipPath id="clip0_1_169">
<rect width="21" height="18" fill="white"/>
</clipPath>
</defs>
</svg>
