<svg width="16" height="24" viewBox="0 0 16 24" fill="none" xmlns="http://www.w3.org/2000/svg">
<g clip-path="url(#clip0_1_147)">
<path d="M7.22828 0C6.71176 0.184815 6.15555 0.303153 5.6855 0.56576C4.1006 1.454 3.30234 2.8321 3.28782 4.60528C3.26555 7.33601 3.2733 10.0672 3.28492 12.798C3.29411 15.0365 4.73282 16.8012 6.96397 17.3467C9.31275 17.9209 11.9239 16.4245 12.5227 14.1383C12.6424 13.6849 12.7053 13.219 12.7101 12.7508C12.7275 10.0517 12.7362 7.35157 12.7101 4.65243C12.6926 2.67227 11.7521 1.21968 9.90818 0.362083C9.55092 0.195655 9.14961 0.120227 8.76864 0.00283156L7.22828 0ZM11.2389 8.6962C11.2389 10.0422 11.2457 11.3878 11.2336 12.7334C11.2354 13.0611 11.1972 13.388 11.1198 13.7069C10.7326 15.1925 9.19609 16.1963 7.62426 16.0115C6.05243 15.8267 4.78413 14.5306 4.77299 13.0087C4.75218 10.1375 4.74685 7.26577 4.77299 4.39501C4.79091 2.55346 6.64544 1.10935 8.50626 1.43042C10.1284 1.71047 11.2244 2.97117 11.2346 4.58925C11.2457 5.95603 11.2384 7.32564 11.2389 8.6962Z" fill="#1F524D"/>
<path d="M8.74445 22.5644V20.6521C9.1201 20.5823 9.49333 20.5347 9.85494 20.4423C12.8011 19.688 14.749 17.887 15.664 15.0676C15.8779 14.4075 15.9186 13.6876 15.9965 12.9931C16.0493 12.5188 15.7424 12.1869 15.3149 12.1667C14.8764 12.1459 14.5917 12.4255 14.5293 12.9092C14.4567 13.475 14.4247 14.0511 14.2722 14.5952C13.7809 16.3443 12.6902 17.6715 11.039 18.4928C8.78463 19.6149 6.53363 19.5088 4.40704 18.1684C2.77954 17.1425 1.83655 15.6433 1.54658 13.7701C1.49527 13.4401 1.49817 13.0997 1.45267 12.7668C1.43157 12.602 1.34978 12.4502 1.22247 12.3397C1.09516 12.2291 0.930983 12.1673 0.760425 12.1657C0.661653 12.1611 0.562963 12.1763 0.470455 12.2103C0.377947 12.2444 0.293585 12.2965 0.222583 12.3635C0.151581 12.4306 0.0954466 12.511 0.0576496 12.6C0.0198517 12.689 0.001194 12.7846 0.00282955 12.8809C0.0129948 14.161 0.303448 15.3797 0.92937 16.5074C1.98274 18.407 3.5749 19.6851 5.68842 20.3301C6.19041 20.4833 6.71807 20.5564 7.25492 20.671V22.5568C7.16101 22.5611 7.07532 22.5681 6.98964 22.5686C6.22672 22.5686 5.46332 22.5686 4.69991 22.5715C4.5558 22.5679 4.41196 22.5859 4.27343 22.6247C3.95345 22.7284 3.76466 23.0561 3.80871 23.3894C3.8322 23.5455 3.90787 23.6897 4.024 23.7996C4.14013 23.9096 4.29024 23.9792 4.45109 23.9976C4.53156 24.0046 4.61239 24.0068 4.69314 24.0042H11.3174C11.3575 24.0042 11.3977 24.0042 11.4379 24.0042C11.8847 23.9924 12.1974 23.6992 12.1999 23.2914C12.2023 22.8836 11.9031 22.5842 11.4452 22.5748C10.6498 22.5611 9.85446 22.5696 9.05911 22.5691L8.74445 22.5644Z" fill="#1F524D"/>
</g>
<defs>
<clipPath id="clip0_1_147">
<rect width="16" height="24" fill="white" transform="matrix(-1 0 0 1 16 0)"/>
</clipPath>
</defs>
</svg>
