<svg width="128" height="26" viewBox="0 0 128 26" fill="none" xmlns="http://www.w3.org/2000/svg">
<path d="M0.86 25V3.94H9.44C11.1 3.94 12.5 4.21 13.64 4.75C14.78 5.29 15.65 6.05 16.25 7.03C16.87 7.99 17.18 9.11 17.18 10.39C17.18 11.69 16.78 12.84 15.98 13.84C15.18 14.82 14.07 15.48 12.65 15.82C13.69 16.16 14.61 16.75 15.41 17.59C16.21 18.43 16.88 19.48 17.42 20.74C17.96 21.98 18.32 23.4 18.5 25H13.04C12.94 23.62 12.68 22.39 12.26 21.31C11.84 20.23 11.19 19.36 10.31 18.7C9.77 18.28 9.14 17.96 8.42 17.74C7.7 17.5 6.87 17.37 5.93 17.35V25H0.86ZM5.93 13.3H9.14C10.08 13.3 10.79 13.05 11.27 12.55C11.77 12.03 12.02 11.38 12.02 10.6C12.02 9.84 11.77 9.23 11.27 8.77C10.77 8.29 10.06 8.05 9.14 8.05H5.93V13.3ZM28.561 25.21C27.341 25.21 26.171 25.02 25.051 24.64C23.951 24.26 22.971 23.71 22.111 22.99C21.271 22.25 20.601 21.36 20.101 20.32C19.621 19.28 19.381 18.09 19.381 16.75C19.381 15.47 19.611 14.3 20.071 13.24C20.551 12.18 21.191 11.26 21.991 10.48C22.811 9.7 23.751 9.1 24.811 8.68C25.891 8.26 27.031 8.05 28.231 8.05C29.211 8.05 30.141 8.18 31.021 8.44C31.921 8.7 32.721 9.08 33.421 9.58C34.141 10.08 34.701 10.67 35.101 11.35C35.521 12.03 35.731 12.79 35.731 13.63C35.731 14.69 35.431 15.57 34.831 16.27C34.231 16.97 33.441 17.52 32.461 17.92C31.501 18.32 30.441 18.61 29.281 18.79C28.141 18.95 27.011 19.02 25.891 19C25.751 19 25.581 19 25.381 19C25.201 18.98 25.031 18.97 24.871 18.97C24.711 18.95 24.591 18.94 24.511 18.94C24.631 19.4 24.881 19.82 25.261 20.2C25.661 20.56 26.161 20.85 26.761 21.07C27.361 21.29 27.981 21.4 28.621 21.4C29.261 21.4 29.871 21.29 30.451 21.07C31.051 20.85 31.591 20.57 32.071 20.23C32.551 19.89 32.961 19.51 33.301 19.09L36.541 21.64C35.941 22.44 35.211 23.11 34.351 23.65C33.491 24.17 32.561 24.56 31.561 24.82C30.581 25.08 29.581 25.21 28.561 25.21ZM25.921 15.67C26.461 15.67 27.021 15.64 27.601 15.58C28.181 15.52 28.711 15.42 29.191 15.28C29.691 15.12 30.091 14.91 30.391 14.65C30.711 14.37 30.871 14.02 30.871 13.6C30.871 13.26 30.751 12.96 30.511 12.7C30.271 12.44 29.951 12.24 29.551 12.1C29.151 11.96 28.721 11.89 28.261 11.89C27.461 11.89 26.761 12.08 26.161 12.46C25.561 12.84 25.101 13.32 24.781 13.9C24.461 14.46 24.281 15.03 24.241 15.61C24.421 15.63 24.661 15.65 24.961 15.67C25.281 15.67 25.601 15.67 25.921 15.67ZM46.3259 25.21C44.6659 25.21 43.2059 24.86 41.9459 24.16C40.6859 23.44 39.6959 22.44 38.9759 21.16C38.2759 19.88 37.9259 18.37 37.9259 16.63C37.9259 14.91 38.2759 13.41 38.9759 12.13C39.6759 10.85 40.6559 9.85 41.9159 9.13C43.1759 8.41 44.6459 8.05 46.3259 8.05C47.1259 8.05 47.9059 8.13 48.6659 8.29C49.4459 8.45 50.1759 8.73 50.8559 9.13C51.5559 9.51 52.1759 10.04 52.7159 10.72C53.2559 11.38 53.6859 12.22 54.0059 13.24L49.1159 14.8C48.8959 14.02 48.5459 13.42 48.0659 13C47.5859 12.58 46.9759 12.37 46.2359 12.37C45.6159 12.37 45.0659 12.53 44.5859 12.85C44.1259 13.17 43.7659 13.65 43.5059 14.29C43.2459 14.91 43.1159 15.69 43.1159 16.63C43.1159 17.53 43.2459 18.31 43.5059 18.97C43.7659 19.61 44.1259 20.1 44.5859 20.44C45.0659 20.78 45.6159 20.95 46.2359 20.95C47.1359 20.95 47.8159 20.68 48.2759 20.14C48.7559 19.6 49.0659 18.94 49.2059 18.16L54.2459 19.36C53.9859 20.36 53.5159 21.31 52.8359 22.21C52.1759 23.09 51.3059 23.81 50.2259 24.37C49.1459 24.93 47.8459 25.21 46.3259 25.21ZM68.3635 22.45V8.26H73.4335V25H70.9135C70.1135 25 69.4835 24.78 69.0235 24.34C68.5835 23.88 68.3635 23.25 68.3635 22.45ZM63.2335 25.21C61.8735 25.21 60.7135 24.91 59.7535 24.31C58.8135 23.71 58.0935 22.87 57.5935 21.79C57.0935 20.71 56.8435 19.45 56.8435 18.01V8.26H61.8835V17.26C61.8835 18.42 62.1735 19.32 62.7535 19.96C63.3535 20.6 64.1435 20.92 65.1235 20.92C65.8035 20.92 66.3835 20.75 66.8635 20.41C67.3435 20.07 67.7135 19.6 67.9735 19C68.2335 18.4 68.3635 17.72 68.3635 16.96L69.0535 17.83C68.9935 19.55 68.6935 20.95 68.1535 22.03C67.6335 23.11 66.9435 23.91 66.0835 24.43C65.2235 24.95 64.2735 25.21 63.2335 25.21ZM77.0884 25V8.26H82.1284V25H77.0884ZM79.6384 6.49C78.6584 6.49 77.8584 6.21 77.2384 5.65C76.6184 5.09 76.3084 4.39 76.3084 3.55C76.3084 2.69 76.6184 1.98 77.2384 1.42C77.8584 0.839999 78.6584 0.549998 79.6384 0.549998C80.5984 0.549998 81.3884 0.839999 82.0084 1.42C82.6284 1.98 82.9384 2.69 82.9384 3.55C82.9384 4.39 82.6284 5.09 82.0084 5.65C81.3884 6.21 80.5984 6.49 79.6384 6.49ZM92.9316 25.21C91.0916 25.21 89.6816 24.71 88.7016 23.71C87.7216 22.69 87.2316 21.22 87.2316 19.3V12.37H84.5616V8.26H95.6316V12.37H92.3016V19.36C92.3016 19.84 92.4516 20.22 92.7516 20.5C93.0716 20.76 93.4516 20.89 93.8916 20.89C94.0916 20.89 94.2716 20.87 94.4316 20.83C94.6116 20.77 94.7816 20.69 94.9416 20.59L96.2016 24.31C95.7216 24.57 95.2116 24.79 94.6716 24.97C94.1516 25.13 93.5716 25.21 92.9316 25.21ZM85.8816 9.61V8.26C86.3216 8.26 86.6816 8.12 86.9616 7.84C87.2416 7.56 87.3816 7.2 87.3816 6.76V4.18H92.3016V5.98C92.3016 6.26 92.2316 6.57 92.0916 6.91C91.9516 7.23 91.7316 7.52 91.4316 7.78C91.1516 8.02 90.8116 8.18 90.4116 8.26L85.8816 9.61ZM106.93 25.21C105.71 25.21 104.54 25.02 103.42 24.64C102.32 24.26 101.34 23.71 100.48 22.99C99.6402 22.25 98.9702 21.36 98.4702 20.32C97.9902 19.28 97.7502 18.09 97.7502 16.75C97.7502 15.47 97.9802 14.3 98.4402 13.24C98.9202 12.18 99.5602 11.26 100.36 10.48C101.18 9.7 102.12 9.1 103.18 8.68C104.26 8.26 105.4 8.05 106.6 8.05C107.58 8.05 108.51 8.18 109.39 8.44C110.29 8.7 111.09 9.08 111.79 9.58C112.51 10.08 113.07 10.67 113.47 11.35C113.89 12.03 114.1 12.79 114.1 13.63C114.1 14.69 113.8 15.57 113.2 16.27C112.6 16.97 111.81 17.52 110.83 17.92C109.87 18.32 108.81 18.61 107.65 18.79C106.51 18.95 105.38 19.02 104.26 19C104.12 19 103.95 19 103.75 19C103.57 18.98 103.4 18.97 103.24 18.97C103.08 18.95 102.96 18.94 102.88 18.94C103 19.4 103.25 19.82 103.63 20.2C104.03 20.56 104.53 20.85 105.13 21.07C105.73 21.29 106.35 21.4 106.99 21.4C107.63 21.4 108.24 21.29 108.82 21.07C109.42 20.85 109.96 20.57 110.44 20.23C110.92 19.89 111.33 19.51 111.67 19.09L114.91 21.64C114.31 22.44 113.58 23.11 112.72 23.65C111.86 24.17 110.93 24.56 109.93 24.82C108.95 25.08 107.95 25.21 106.93 25.21ZM104.29 15.67C104.83 15.67 105.39 15.64 105.97 15.58C106.55 15.52 107.08 15.42 107.56 15.28C108.06 15.12 108.46 14.91 108.76 14.65C109.08 14.37 109.24 14.02 109.24 13.6C109.24 13.26 109.12 12.96 108.88 12.7C108.64 12.44 108.32 12.24 107.92 12.1C107.52 11.96 107.09 11.89 106.63 11.89C105.83 11.89 105.13 12.08 104.53 12.46C103.93 12.84 103.47 13.32 103.15 13.9C102.83 14.46 102.65 15.03 102.61 15.61C102.79 15.63 103.03 15.65 103.33 15.67C103.65 15.67 103.97 15.67 104.29 15.67ZM117.315 25V8.26H122.385V25H117.315ZM121.605 17.8L122.385 12.31C122.745 11.01 123.375 9.99 124.275 9.25C125.175 8.49 126.325 8.11 127.725 8.11V13.39C127.505 13.35 127.295 13.32 127.095 13.3C126.895 13.28 126.695 13.27 126.495 13.27C125.755 13.27 125.075 13.45 124.455 13.81C123.835 14.15 123.335 14.66 122.955 15.34C122.575 16 122.385 16.82 122.385 17.8H121.605Z" fill="#1F514C"/>
</svg>
