<svg width="15" height="15" viewBox="0 0 15 15" fill="none" xmlns="http://www.w3.org/2000/svg">
<g clip-path="url(#clip0_1_118)">
<path d="M2.14201 12.7704C2.14201 13.3546 2.14558 13.8995 2.14201 14.4444C2.13843 14.8404 1.76764 15.1037 1.41654 14.9607C1.20766 14.8753 1.07617 14.7157 1.07483 14.4877C1.06946 13.3998 1.06946 12.3121 1.07483 11.2247C1.07541 11.1571 1.08937 11.0902 1.11591 11.028C1.14246 10.9657 1.18105 10.9094 1.22948 10.8621C1.27791 10.8148 1.33521 10.7776 1.3981 10.7525C1.46098 10.7275 1.5282 10.7151 1.59589 10.7161C2.67291 10.7113 3.74993 10.7113 4.82695 10.7161C4.96859 10.7161 5.10442 10.7723 5.20457 10.8724C5.30472 10.9725 5.36099 11.1082 5.36099 11.2498C5.36099 11.3913 5.30472 11.5271 5.20457 11.6272C5.10442 11.7272 4.96859 11.7835 4.82695 11.7835C4.19049 11.7888 3.55448 11.7835 2.91846 11.7835H2.73956L2.71048 11.8259C2.96632 12.0593 3.20963 12.3082 3.48023 12.5228C4.74734 13.5267 6.19827 13.9849 7.80843 13.9183C10.7984 13.794 13.3429 11.5403 13.8336 8.58797C13.8845 8.24085 13.9169 7.89126 13.9306 7.54069C13.9503 7.19874 14.1619 6.96183 14.4732 6.96407C14.7845 6.9663 15.0059 7.2117 15.0045 7.54962C14.9915 11.1197 12.388 14.2464 8.87204 14.8632C6.36152 15.3031 4.15963 14.6344 2.28737 12.8987L2.14201 12.7704Z" fill="white"/>
<path d="M12.858 2.19783V2.03423C12.858 1.53807 12.8548 1.04148 12.858 0.544876C12.8556 0.473486 12.8676 0.402338 12.8932 0.335656C12.9188 0.268975 12.9576 0.208118 13.0071 0.156665C13.0567 0.105212 13.1161 0.0642088 13.1818 0.0361008C13.2475 0.00799279 13.3182 -0.00665397 13.3897 -0.00698286C13.4612 -0.00731175 13.532 0.00668895 13.5979 0.034191C13.6639 0.0616931 13.7237 0.102135 13.7737 0.153129C13.8238 0.204124 13.8631 0.264631 13.8893 0.331073C13.9156 0.397516 13.9282 0.468546 13.9265 0.539955C13.9301 1.61272 13.9301 2.68386 13.9265 3.75335C13.9279 3.82359 13.9151 3.89338 13.8888 3.95855C13.8626 4.02371 13.8234 4.08291 13.7737 4.13258C13.724 4.18226 13.6648 4.22139 13.5996 4.24762C13.5344 4.27386 13.4645 4.28666 13.3942 4.28526C12.3226 4.28914 11.2511 4.28914 10.1797 4.28526C10.1083 4.2869 10.0372 4.27421 9.97077 4.24793C9.90432 4.22165 9.84382 4.18231 9.79284 4.13226C9.74186 4.0822 9.70145 4.02242 9.67399 3.95648C9.64653 3.89054 9.63258 3.81977 9.63297 3.74834C9.63336 3.67692 9.64808 3.60631 9.67625 3.54067C9.70443 3.47504 9.74549 3.4157 9.79701 3.3662C9.84853 3.3167 9.90946 3.27804 9.97619 3.25248C10.0429 3.22692 10.1141 3.215 10.1855 3.21742C10.8775 3.21339 11.5689 3.21742 12.2899 3.21742C12.2483 3.16422 12.2233 3.12802 12.192 3.0936C11.1467 1.99535 9.87514 1.32665 8.36964 1.14026C6.1901 0.872063 4.32276 1.53361 2.80966 3.11996C1.66913 4.31521 1.10557 5.76702 1.07292 7.41953C1.068 7.68504 0.983465 7.89156 0.731206 7.99749C0.373392 8.14723 -0.00275927 7.87636 -0.000970206 7.47363C0.00529154 6.32353 0.245921 5.22439 0.770118 4.20034C1.87308 2.04497 3.60356 0.655278 5.97944 0.172085C8.52171 -0.345079 10.7706 0.317805 12.6884 2.07447C12.7296 2.11201 12.7694 2.15135 12.8106 2.18845C12.8182 2.19292 12.8302 2.19158 12.858 2.19783Z" fill="white"/>
</g>
<defs>
<clipPath id="clip0_1_118">
<rect width="15" height="15" fill="white"/>
</clipPath>
</defs>
</svg>
